<?xml version="1.0" encoding="utf-8"?>
<!-- Generator: Adobe Illustrator 28.4.1, SVG Export Plug-In . SVG Version: 6.00 Build 0)  -->
<svg version="1.1" id="Camada_1" xmlns="http://www.w3.org/2000/svg" xmlns:xlink="http://www.w3.org/1999/xlink" x="0px" y="0px"
	 viewBox="0 0 740 740" style="enable-background:new 0 0 740 740;" xml:space="preserve">
<style type="text/css">
	.st0{fill:#FFFFFF;}
</style>
<g>
	<path d="M370.41,9.95c200.56-0.43,362.26,163.57,359.76,363.88c-2.54,203.38-168.41,357.08-361.64,356.23
		C167.14,729.18,6.58,563.27,9.85,364.08C13.09,166.08,175.91,8.5,370.41,9.95z M404.13,344.27c0-12.95,0.2-25.36-0.06-37.75
		c-0.21-10.11-5.01-14.58-15.02-14.6c-21.77-0.04-43.54-0.05-65.3,0c-9.92,0.02-14.74,4.83-14.74,14.81
		c-0.03,90.32-0.03,180.64-0.01,270.96c0,9.04,4.37,14.14,13.47,14.26c22.91,0.32,45.83,0.24,68.74,0.05
		c7.2-0.06,11.67-4.51,12.61-11.59c0.33-2.45,0.3-4.95,0.3-7.43c0.01-49.07-0.04-98.15,0.08-147.22c0.01-4.69-0.05-9.92,1.87-13.98
		c5.75-12.11,13.21-23.28,23.6-32.02c13.31-11.19,28.16-13.84,44.22-6.47c18.28,8.38,26.02,24.06,26.23,42.89
		c0.6,53.84,0.24,107.69,0.27,161.54c0.01,10.26,4,14.42,14.08,14.45c22.34,0.06,44.68,0.06,67.02-0.02
		c10.65-0.04,14.3-3.91,14.3-14.67c0-40.1,0.12-80.2-0.02-120.3c-0.08-23.47,1.3-47.14-1.3-70.36
		c-3.99-35.69-22.75-63.06-54.68-80.35c-21.99-11.91-46.08-12.45-70.26-10.87c-22.16,1.44-39.44,11.92-52.38,29.75
		C412.69,331.48,408.54,337.84,404.13,344.27z M175.97,442.15c0,45.24-0.01,90.48,0.01,135.72c0,8.78,4.23,13.34,12.96,14.19
		c1.33,0.13,2.67,0.15,4,0.15c20.23,0.01,40.47,0.04,60.7-0.02c2.65-0.01,5.39-0.18,7.94-0.85c5.25-1.37,8.66-4.67,9-10.39
		c0.17-2.86,0.19-5.72,0.19-8.58c0.01-77.69,0-155.38,0.02-233.07c0-10.88,0.44-21.76,0.21-32.63
		c-0.22-10.44-4.96-14.76-15.36-14.78c-21.38-0.03-42.76-0.03-64.14,0c-11.04,0.01-15.52,4.57-15.52,15.69
		C175.98,352.44,175.98,397.29,175.97,442.15z M162.16,209.21c0.17,34.53,27.43,61.39,62,61.38c30.42,0,60.87-24.42,60.73-61.62
		c-0.13-34.29-26.96-60.7-61.28-61.27C189.9,147.16,162,175.59,162.16,209.21z"/>
</g>
</svg>
