<?xml version="1.0" encoding="utf-8"?>
<!-- Generator: Adobe Illustrator 28.4.1, SVG Export Plug-In . SVG Version: 6.00 Build 0)  -->
<svg version="1.1" id="Camada_1" xmlns="http://www.w3.org/2000/svg" xmlns:xlink="http://www.w3.org/1999/xlink" x="0px" y="0px"
	 viewBox="0 0 740 740" style="enable-background:new 0 0 740 740;" xml:space="preserve">
<style type="text/css">
	.st0{fill:#FFFFFF;}
</style>
<path class="st0" d="M270.49,380.42c0,0,27.48,2.61,29.32,4.74s1.06-5.13,1.06-5.13l-23.52-10.98l-6.87,7.59V380.42z"/>
<g>
	<path d="M370.12,734.7C172.41,734.97,13.95,578.4,5.63,387.57C-3.68,174.11,163.26,13.52,352.89,5.64
		c212.5-8.84,373.12,157.37,381.48,346.82C743.77,565.4,573.68,735.21,370.12,734.7z M99.95,198.98c0,112.17,0,223.63,0,335.61
		c2.3,0,4.31,0,6.31,0c54.92,0,109.84,0.07,164.76-0.04c19.24-0.04,37.95-3.21,55.67-11.04c21.28-9.4,37.68-23.97,46.23-45.98
		c10.77-27.73,10.6-56.05,1.54-84.06c-6.83-21.12-20.65-35.79-43.33-40.43c-1.99-0.41-3.99-0.79-5.99-1.18
		c1.69-1.47,3.29-2,4.87-2.57c17.44-6.29,29.42-17.94,35.28-35.71c4.32-13.09,4.47-26.47,2.83-39.93
		c-2.97-24.36-13.5-44.41-34.23-58.39c-17.09-11.53-36.27-16.18-56.58-16.23c-57.14-0.14-114.27-0.05-171.41-0.05
		C104.04,198.98,102.19,198.98,99.95,198.98z M466.31,429.67c2.31,0,4.32,0,6.34,0c53.89,0,107.78-0.03,161.67,0.06
		c3.59,0.01,5.71-0.5,5.85-4.8c0.81-25.2-0.92-50.02-10.24-73.81c-12.28-31.37-34.03-52.52-66.77-61.72
		c-22-6.18-44.35-6.73-66.8-3.23c-34.48,5.38-62.32,21.64-80.51,51.93c-20.96,34.91-27.35,72.6-18.34,112.48
		c6.75,29.91,21.58,54.68,47.98,71.41c18.08,11.45,38.14,16.93,59.36,18.45c26.89,1.92,53.49,1.08,78.95-9.16
		c27-10.85,45.76-29.15,51.66-58.58c1.34-6.71,1.81-13.6,2.7-20.62c-20.53,0-39.91,0-59.32,0c-0.31,1.01-0.68,1.81-0.78,2.64
		c-1.7,14.76-10.7,23.6-23.87,28.52c-15.92,5.95-32.48,6.43-48.79,2.5C476.91,478.9,464.72,454.66,466.31,429.67z M450.63,259.87
		c46.25,0,92.15,0,137.99,0c0-13.98,0-27.52,0-41.08c-46.21,0-92.01,0-137.99,0C450.63,232.63,450.63,246.17,450.63,259.87z"/>
	<path d="M176.82,474.62c0-30.01,0-59.4,0-89.54c2.15,0,4.12,0,6.09,0c28.8,0,57.6,0.36,86.39-0.12
		c21.78-0.36,35.82,13.06,39.22,34.32c1.5,9.36,1.27,18.6-1.05,27.79c-3.95,15.69-15.09,25.63-31.41,26.9
		c-10.34,0.8-20.76,0.58-31.15,0.62c-20.79,0.08-41.57,0.02-62.36,0.02C180.73,474.62,178.91,474.62,176.82,474.62z"/>
	<path d="M176.92,258.49c18.67,0,36.89,0,55.1,0c13.12,0,26.24-0.01,39.35,0c10.59,0.01,19.21,5.75,22.89,15.6
		c5.6,15.02,4.68,30.09-0.75,44.87c-3.35,9.11-10.91,13.87-20.18,13.98c-32.01,0.4-64.02,0.15-96.42,0.15
		C176.92,308.28,176.92,283.71,176.92,258.49z"/>
	<path d="M465.83,384.17c2.86-22.86,21.32-47.27,49.14-50.11c13.35-1.36,26.32-0.53,37.87,6.93c15.39,9.94,20.83,25.26,22.18,43.18
		C538.43,384.17,502.14,384.17,465.83,384.17z"/>
</g>
</svg>
